<svg width="120" height="120" viewBox="0 0 120 120" fill="none" xmlns="http://www.w3.org/2000/svg">
  <!-- Robot Head -->
  <rect x="25" y="30" width="70" height="60" rx="15" fill="url(#gradient1)" stroke="#4F46E5" stroke-width="2"/>
  
  <!-- Robot Eyes -->
  <circle cx="40" cy="50" r="8" fill="#60A5FA"/>
  <circle cx="80" cy="50" r="8" fill="#60A5FA"/>
  <circle cx="40" cy="50" r="4" fill="#1E40AF"/>
  <circle cx="80" cy="50" r="4" fill="#1E40AF"/>
  
  <!-- Robot Mouth -->
  <rect x="50" y="65" width="20" height="8" rx="4" fill="#374151"/>
  
  <!-- Robot Antennas -->
  <line x1="45" y1="30" x2="45" y2="15" stroke="#4F46E5" stroke-width="3" stroke-linecap="round"/>
  <line x1="75" y1="30" x2="75" y2="15" stroke="#4F46E5" stroke-width="3" stroke-linecap="round"/>
  <circle cx="45" cy="12" r="3" fill="#EF4444"/>
  <circle cx="75" cy="12" r="3" fill="#10B981"/>
  
  <!-- Robot Body -->
  <rect x="35" y="90" width="50" height="25" rx="8" fill="url(#gradient2)" stroke="#4F46E5" stroke-width="2"/>
  
  <!-- Robot Arms -->
  <rect x="15" y="95" width="15" height="8" rx="4" fill="#6366F1"/>
  <rect x="90" y="95" width="15" height="8" rx="4" fill="#6366F1"/>
  
  <!-- Gradients -->
  <defs>
    <linearGradient id="gradient1" x1="0%" y1="0%" x2="100%" y2="100%">
      <stop offset="0%" style="stop-color:#8B5CF6;stop-opacity:1" />
      <stop offset="100%" style="stop-color:#3B82F6;stop-opacity:1" />
    </linearGradient>
    <linearGradient id="gradient2" x1="0%" y1="0%" x2="100%" y2="100%">
      <stop offset="0%" style="stop-color:#6366F1;stop-opacity:1" />
      <stop offset="100%" style="stop-color:#8B5CF6;stop-opacity:1" />
    </linearGradient>
  </defs>
</svg>